<svg width="57" height="57" viewBox="0 0 57 57" fill="none" xmlns="http://www.w3.org/2000/svg">
<rect width="57" height="57" rx="28.5" fill="#EEEEEE"/>
<path d="M38.5123 19.4877C38.3577 19.3331 38.1742 19.2104 37.9722 19.1268C37.7703 19.0431 37.5538 19 37.3351 19C37.1165 19 36.9 19.0431 36.6981 19.1268C36.4961 19.2104 36.3126 19.3331 36.158 19.4877L29.0103 26.6355L21.8627 19.4877C21.5487 19.1844 21.1281 19.0166 20.6915 19.0204C20.255 19.0242 19.8374 19.1993 19.5287 19.508C19.22 19.8167 19.0449 20.2343 19.0411 20.6708C19.0373 21.1074 19.2051 21.5279 19.5084 21.842L26.656 28.9897L19.5083 36.1373C19.3493 36.2909 19.2224 36.4746 19.1352 36.6777C19.0479 36.8809 19.002 37.0994 19.0001 37.3204C18.9981 37.5415 19.0403 37.7607 19.124 37.9654C19.2077 38.17 19.3313 38.3559 19.4877 38.5122C19.644 38.6685 19.8299 38.7922 20.0345 38.8759C20.2391 38.9596 20.4584 39.0017 20.6794 38.9998C20.9005 38.9979 21.119 38.9519 21.3221 38.8647C21.5252 38.7774 21.709 38.6506 21.8625 38.4916L29.0103 31.344L36.1579 38.4916C36.4719 38.7949 36.8925 38.9627 37.329 38.9589C37.7656 38.9551 38.1832 38.78 38.4919 38.4713C38.8006 38.1626 38.9757 37.745 38.9794 37.3085C38.9832 36.8719 38.8154 36.4514 38.5121 36.1373L31.3645 28.9897L38.5122 21.8421C38.6668 21.6875 38.7895 21.504 38.8732 21.302C38.9569 21.1001 39 20.8836 39 20.6649C39 20.4463 38.9569 20.2298 38.8733 20.0278C38.7896 19.8258 38.6669 19.6423 38.5123 19.4877Z" fill="#7C7C7C"/>
</svg>
