<svg width="74" height="94" viewBox="0 0 74 94" fill="none" xmlns="http://www.w3.org/2000/svg">
<path d="M14.5012 11.6177L15.4999 11.5939V12.5658H19.4061H20.4061V11.5658V6.94863H66.9921V75.5856H62.3749H61.3749V76.5856V80.4918V81.4918H62.3749H69.9452C71.5756 81.4918 72.8983 80.1691 72.8983 78.5387V3.99973C72.8983 2.36935 71.5756 1.04663 69.9452 1.04663H17.4532C15.8228 1.04663 14.5001 2.36935 14.5001 3.99973V10.5658H14.4511L14.501 11.6135L14.5012 11.6177Z" fill="black" stroke="black" stroke-width="2"/>
<path d="M56.515 12.4771H4.02305C2.39266 12.4771 1.06995 13.7998 1.06995 15.4302V89.9692C1.06995 91.5995 2.39266 92.9223 4.02305 92.9223H56.515C58.1454 92.9223 59.4681 91.5995 59.4681 89.9692V15.4302C59.4681 13.7998 58.1454 12.4771 56.515 12.4771ZM53.5621 87.0203H6.97615V18.3833H53.5621V87.0203Z" fill="black" stroke="black" stroke-width="2"/>
</svg>
