<svg width="30" height="30" viewBox="0 0 30 30" fill="none" xmlns="http://www.w3.org/2000/svg">
<path fill-rule="evenodd" clip-rule="evenodd" d="M1.41005 1.41005C1.95679 0.863318 2.84321 0.863318 3.38995 1.41005L9.6039 7.624C14.713 5.60076 20.8079 6.57568 24.967 10.5488L28.567 13.9877C28.8436 14.2518 29 14.6175 29 15C29 15.3825 28.8436 15.7482 28.567 16.0123L24.967 19.4513C24.3507 20.04 23.6918 20.5629 22.9999 21.02L28.5899 26.6101C29.1366 27.1568 29.1366 28.0432 28.5899 28.5899C28.0432 29.1366 27.1568 29.1366 26.6101 28.5899L1.41005 3.38995C0.863318 2.84321 0.863318 1.95679 1.41005 1.41005ZM20.9682 18.9883C21.7028 18.555 22.3966 18.0345 23.0329 17.4266L25.5732 15L23.0329 12.5734C22.2927 11.8663 21.475 11.2774 20.6055 10.8066C21.4813 11.9754 22 13.4271 22 15C22 16.4267 21.5731 17.7538 20.8402 18.8604L20.9682 18.9883ZM18.7906 16.8108L13.1892 11.2093C13.7375 10.9469 14.3517 10.8 15 10.8C17.3197 10.8 19.2 12.6803 19.2 15C19.2 15.6483 19.0531 16.2625 18.7906 16.8108Z" fill="black"/>
<path d="M5.03297 10.5488C5.15892 10.4285 5.28667 10.3109 5.41612 10.196L7.40046 12.1804C7.25327 12.3071 7.10873 12.4382 6.96704 12.5734L4.42681 15L6.96704 17.4267C9.38335 19.7348 12.6262 20.7839 15.7938 20.5737L18.2568 23.0369C13.6596 24.0774 8.6246 22.8822 5.03297 19.4513L1.43296 16.0124C1.15644 15.7482 1 15.3825 1 15C1 14.6176 1.15644 14.2519 1.43296 13.9877L5.03297 10.5488Z" fill="black"/>
</svg>
