<svg width="30" height="30" viewBox="0 0 30 30" fill="none" xmlns="http://www.w3.org/2000/svg">
<path fill-rule="evenodd" clip-rule="evenodd" d="M25.8143 11.4316C19.8405 5.5228 10.1595 5.5228 4.18566 11.4316L1.29677 14.289C1.10687 14.4769 1 14.7329 1 15C1 15.2671 1.10687 15.5231 1.29677 15.711L4.18566 18.5684C10.1595 24.4772 19.8405 24.4772 25.8143 18.5684L28.7032 15.711C28.8931 15.5231 29 15.2671 29 15C29 14.7329 28.8931 14.4769 28.7032 14.289L25.8143 11.4316ZM19.7595 9.867C21.454 10.5076 23.0426 11.5031 24.4079 12.8535L26.578 15L24.4079 17.1465C23.0426 18.4969 21.454 19.4924 19.7595 20.133C21.1376 18.8546 22 17.028 22 15C22 12.972 21.1376 11.1454 19.7595 9.867ZM10.2405 9.867C8.54601 10.5076 6.95743 11.5031 5.59211 12.8535L3.42202 15L5.59211 17.1465C6.95743 18.4969 8.54601 19.4924 10.2405 20.133C8.86241 18.8546 8 17.028 8 15C8 12.972 8.86241 11.1454 10.2405 9.867ZM10 15C10 12.2386 12.2386 10 15 10C17.7614 10 20 12.2386 20 15C20 17.7614 17.7614 20 15 20C12.2386 20 10 17.7614 10 15Z" fill="black"/>
</svg>
