<svg width="25" height="25" viewBox="0 0 25 25" fill="none" xmlns="http://www.w3.org/2000/svg">
<path d="M24.14 22.73L17.74 16.33C19.3562 14.3431 20.1485 11.8119 19.9535 9.25808C19.7585 6.70429 18.591 4.32269 16.6918 2.6043C14.7926 0.885904 12.3064 -0.0382643 9.74593 0.0223335C7.18543 0.0829313 4.74578 1.12368 2.92999 2.92999C1.12368 4.74578 0.0829313 7.18543 0.0223335 9.74593C-0.0382643 12.3064 0.885904 14.7926 2.6043 16.6918C4.32269 18.591 6.70429 19.7585 9.25808 19.9535C11.8119 20.1485 14.3431 19.3562 16.33 17.74L22.73 24.14C22.9213 24.3038 23.1674 24.3894 23.419 24.3797C23.6707 24.37 23.9095 24.2656 24.0875 24.0875C24.2656 23.9095 24.37 23.6707 24.3797 23.419C24.3894 23.1674 24.3038 22.9213 24.14 22.73ZM4.33999 15.66C3.22064 14.5414 2.4582 13.1159 2.14909 11.5639C1.83998 10.0119 1.9981 8.40314 2.60345 6.94102C3.2088 5.47891 4.23417 4.22917 5.54988 3.34989C6.86559 2.4706 8.41251 2.00128 9.99499 2.00128C11.5775 2.00128 13.1244 2.4706 14.4401 3.34989C15.7558 4.22917 16.7812 5.47891 17.3865 6.94102C17.9919 8.40314 18.15 10.0119 17.8409 11.5639C17.5318 13.1159 16.7693 14.5414 15.65 15.66C14.9106 16.4083 14.03 17.0024 13.0593 17.4079C12.0885 17.8134 11.047 18.0222 9.99499 18.0222C8.94298 18.0222 7.90144 17.8134 6.93072 17.4079C5.96 17.0024 5.07941 16.4083 4.33999 15.66Z" fill="#9CA3AF"/>
</svg>
