<svg id="svg" version="1.1" xmlns="http://www.w3.org/2000/svg" xmlns:xlink="http://www.w3.org/1999/xlink" width="400" height="88.17407757805108" viewBox="0, 0, 400,88.17407757805108"><g id="svgg"><path id="path0" d="M341.483 8.672 C 337.153 9.337,334.403 13.323,335.947 16.697 C 337.814 20.775,346.045 18.311,346.614 13.503 C 347.007 10.187,344.849 8.155,341.483 8.672 M17.833 22.934 C 7.172 24.149,1.444 30.430,0.480 41.962 C -0.851 57.897,9.717 68.401,24.083 65.421 C 28.199 64.567,33.833 61.460,33.833 60.044 C 33.833 59.601,32.145 56.827,31.946 56.944 C 31.838 57.008,31.375 57.374,30.917 57.759 C 23.671 63.837,12.838 63.289,8.097 56.605 C 4.034 50.877,3.660 39.747,7.317 33.364 C 11.829 25.486,23.427 24.466,31.284 31.258 C 32.135 31.994,32.125 31.999,33.071 30.264 C 34.032 28.500,34.036 28.538,32.792 27.456 C 29.130 24.271,22.825 22.365,17.833 22.934 M202.917 22.934 C 191.943 23.970,185.847 31.639,185.837 44.417 C 185.828 57.757,192.814 65.742,204.500 65.747 C 216.364 65.753,223.229 57.899,223.218 44.333 C 223.207 30.389,215.047 21.788,202.917 22.934 M283.958 23.008 C 276.433 23.788,271.726 27.966,271.387 34.167 C 271.021 40.846,274.473 44.089,284.417 46.409 C 294.531 48.768,296.875 50.236,296.856 54.198 C 296.831 59.203,293.141 61.858,286.167 61.890 C 280.621 61.915,276.749 60.576,273.118 57.378 C 272.342 56.695,272.363 56.682,271.429 58.438 C 270.500 60.184,270.501 60.138,271.377 60.946 C 277.071 66.194,288.650 67.443,295.639 63.563 C 301.696 60.200,303.130 51.710,298.360 47.453 C 296.131 45.465,293.835 44.603,284.917 42.410 C 278.017 40.712,275.584 38.760,275.595 34.928 C 275.621 25.975,289.121 23.726,298.011 31.194 C 299.010 32.034,298.962 32.055,299.875 30.339 C 300.828 28.549,300.828 28.534,300.042 27.817 C 296.105 24.226,289.955 22.387,283.958 23.008 M42.444 23.444 C 42.383 23.506,42.333 32.956,42.333 44.444 L 42.333 65.333 44.417 65.333 L 46.500 65.333 46.500 56.405 L 46.500 47.477 52.208 47.539 C 61.350 47.640,60.405 46.867,67.177 59.792 L 70.081 65.333 72.280 65.333 C 75.005 65.333,74.948 65.449,73.514 62.846 C 72.864 61.668,72.333 60.665,72.333 60.617 C 72.333 60.569,72.045 60.017,71.692 59.390 C 71.339 58.763,70.692 57.575,70.255 56.750 C 66.065 48.852,65.954 48.684,63.958 47.175 L 63.334 46.703 64.708 46.332 C 70.168 44.861,72.898 41.200,72.911 35.333 C 72.928 28.162,69.290 24.349,61.632 23.511 C 59.873 23.318,42.630 23.259,42.444 23.444 M83.111 23.444 C 83.050 23.506,83.000 32.956,83.000 44.445 L 83.000 65.335 96.042 65.293 L 109.083 65.250 109.083 63.500 L 109.083 61.750 98.125 61.707 L 87.167 61.664 87.167 53.833 L 87.167 46.003 97.542 45.960 L 107.917 45.917 107.917 44.083 L 107.917 42.250 97.542 42.207 L 87.167 42.164 87.167 34.667 L 87.167 27.169 98.125 27.126 L 109.083 27.083 109.131 25.441 C 109.162 24.374,109.112 23.718,108.986 23.566 C 108.780 23.319,83.357 23.199,83.111 23.444 M130.878 23.542 C 130.789 23.656,129.872 25.700,128.842 28.083 C 126.768 32.878,125.239 36.390,123.906 39.417 C 123.422 40.517,122.675 42.239,122.247 43.243 C 121.819 44.248,121.331 45.373,121.164 45.743 C 120.996 46.114,120.361 47.579,119.752 49.000 C 119.143 50.421,118.169 52.671,117.587 54.000 C 117.006 55.329,116.157 57.279,115.702 58.333 C 115.247 59.387,114.415 61.301,113.854 62.584 C 112.537 65.597,112.431 65.333,114.959 65.333 L 117.084 65.333 117.864 63.542 C 118.292 62.556,119.140 60.587,119.748 59.167 C 120.356 57.746,121.065 56.096,121.324 55.500 L 121.794 54.417 132.718 54.374 L 143.641 54.331 144.087 55.290 C 144.332 55.818,144.635 56.533,144.760 56.878 C 144.885 57.224,145.393 58.424,145.888 59.545 C 146.383 60.666,147.155 62.427,147.602 63.458 L 148.416 65.333 150.463 65.333 C 152.938 65.333,152.903 65.378,151.991 63.405 C 151.612 62.586,151.168 61.579,151.003 61.167 C 150.719 60.457,147.900 53.946,145.591 48.667 C 145.010 47.337,144.146 45.350,143.670 44.250 C 142.224 40.902,140.677 37.348,139.825 35.417 C 139.381 34.408,138.684 32.796,138.276 31.833 C 136.793 28.331,135.291 24.905,134.897 24.128 L 134.494 23.333 132.768 23.333 C 131.584 23.333,130.990 23.399,130.878 23.542 M150.279 23.444 C 150.217 23.505,150.167 24.368,150.167 25.361 L 150.167 27.167 157.583 27.167 L 165.000 27.167 165.000 46.250 L 165.000 65.333 167.083 65.333 L 169.167 65.333 169.167 46.252 L 169.167 27.170 176.542 27.127 L 183.917 27.083 183.917 25.250 L 183.917 23.417 167.154 23.374 C 157.934 23.351,150.340 23.382,150.279 23.444 M232.520 23.560 C 232.382 23.725,232.343 29.335,232.374 44.518 L 232.417 65.250 234.542 65.297 L 236.667 65.343 236.667 56.422 L 236.667 47.500 241.842 47.500 C 250.462 47.500,250.936 47.756,254.328 54.254 C 255.284 56.085,256.986 59.308,258.109 61.417 L 260.152 65.250 262.410 65.296 C 265.121 65.352,265.032 65.558,263.526 62.728 C 262.899 61.548,261.988 59.833,261.502 58.917 C 261.016 58.000,259.879 55.880,258.976 54.206 C 258.072 52.532,257.333 51.122,257.333 51.074 C 257.333 50.499,254.888 47.647,253.882 47.048 L 253.348 46.729 254.966 46.275 C 260.289 44.782,263.059 41.011,263.066 35.250 C 263.075 28.321,259.262 24.364,251.750 23.507 C 249.341 23.232,232.754 23.277,232.520 23.560 M383.794 26.145 C 380.692 26.955,375.639 32.135,371.177 39.083 C 370.412 40.275,369.543 41.625,369.246 42.083 C 368.949 42.542,367.468 44.834,365.955 47.177 C 357.922 59.616,353.356 65.166,353.031 62.885 C 352.768 61.031,358.166 48.768,362.738 40.836 C 363.135 40.147,363.608 39.321,363.790 39.000 C 364.492 37.759,366.539 34.451,367.904 32.352 C 369.676 29.628,369.724 29.315,368.540 28.174 C 364.118 23.911,356.741 28.421,346.785 41.475 C 345.558 43.083,345.167 43.374,345.167 42.680 C 345.167 42.138,348.563 35.902,351.391 31.250 C 351.726 30.700,351.999 30.092,352.000 29.900 C 352.001 28.432,348.494 26.296,346.527 26.565 C 345.243 26.741,345.106 26.894,343.163 30.326 C 342.220 31.991,342.055 32.296,340.446 35.333 C 339.888 36.387,338.971 37.925,338.408 38.750 C 336.112 42.119,331.549 48.568,330.332 50.167 C 330.088 50.487,329.369 51.462,328.736 52.333 C 322.875 60.385,318.500 64.864,318.500 62.811 C 318.500 60.896,323.375 49.608,326.876 43.417 C 328.975 39.704,332.253 34.351,334.275 31.333 C 335.463 29.560,334.952 28.498,332.252 27.128 C 329.963 25.967,328.403 26.277,327.199 28.133 C 326.245 29.603,323.667 33.822,323.667 33.913 C 323.667 33.946,323.217 34.735,322.667 35.667 C 322.117 36.598,321.667 37.396,321.667 37.439 C 321.667 37.482,321.228 38.282,320.691 39.217 C 312.725 53.094,309.447 64.769,312.626 67.948 C 315.406 70.728,319.152 69.218,324.068 63.336 C 326.156 60.837,328.777 57.329,330.668 54.500 C 331.434 53.354,332.127 52.342,332.207 52.250 C 332.287 52.158,331.966 52.946,331.493 54.000 C 329.776 57.830,328.667 60.606,328.667 61.075 C 328.667 63.611,335.089 65.903,336.025 63.702 C 336.540 62.489,338.320 59.035,339.030 57.872 C 339.380 57.298,339.667 56.797,339.667 56.760 C 339.667 56.637,342.234 52.621,343.921 50.105 C 349.824 41.304,358.395 31.050,357.918 33.360 C 357.811 33.877,357.480 34.512,355.713 37.583 C 346.200 54.125,343.069 65.053,346.961 68.136 C 350.785 71.164,354.509 68.734,361.272 58.795 C 362.440 57.078,363.419 55.697,363.448 55.725 C 363.476 55.754,363.412 56.221,363.306 56.763 C 362.028 63.295,365.890 68.276,371.992 67.965 C 377.540 67.682,388.474 55.970,397.826 40.293 C 399.888 36.836,400.050 36.295,399.057 36.199 C 398.586 36.153,398.466 36.242,397.927 37.032 C 397.595 37.519,396.689 38.817,395.913 39.917 C 395.138 41.017,394.163 42.404,393.747 43.000 C 392.533 44.737,392.011 45.450,390.204 47.833 C 388.187 50.494,387.006 52.014,386.761 52.266 C 386.663 52.366,385.871 53.291,385.000 54.320 C 375.503 65.548,367.575 65.399,372.416 54.083 C 377.006 43.355,388.647 28.245,390.154 31.060 C 390.782 32.233,385.105 39.357,381.701 41.667 C 380.635 42.390,380.597 42.752,381.485 43.712 C 383.209 45.577,384.954 46.133,386.292 45.244 C 388.341 43.883,392.541 39.227,393.837 36.877 C 393.977 36.624,394.408 35.879,394.796 35.221 C 397.519 30.598,390.120 24.495,383.794 26.145 M207.694 27.068 C 215.461 28.560,219.583 35.760,218.820 46.507 C 218.113 56.490,213.092 61.879,204.500 61.879 C 196.232 61.879,191.311 56.831,190.343 47.357 C 188.930 33.529,196.322 24.885,207.694 27.068 M63.333 27.646 C 68.176 29.110,70.316 34.495,67.998 39.389 C 66.297 42.981,63.970 43.667,53.478 43.667 L 46.500 43.667 46.500 35.406 L 46.500 27.146 54.292 27.207 C 61.815 27.267,62.126 27.282,63.333 27.646 M251.928 27.345 C 256.878 28.235,258.750 30.405,258.750 35.250 C 258.750 38.700,257.942 40.565,255.839 41.970 C 253.592 43.470,252.218 43.659,243.542 43.663 L 236.667 43.667 236.667 35.417 L 236.667 27.167 243.803 27.167 C 248.134 27.167,251.328 27.237,251.928 27.345 M135.741 35.833 C 136.269 37.071,137.139 39.096,137.674 40.333 C 138.413 42.040,141.166 48.457,141.947 50.292 C 142.017 50.457,140.115 50.500,132.750 50.500 C 125.386 50.500,123.482 50.457,123.552 50.292 C 123.600 50.177,123.914 49.446,124.249 48.667 C 124.919 47.110,126.348 43.772,127.783 40.417 C 128.928 37.740,130.477 34.139,131.768 31.149 L 132.748 28.881 133.765 31.232 C 134.324 32.525,135.213 34.596,135.741 35.833 " stroke="none" fill="#202020" fill-rule="evenodd"></path><path id="path1" d="M389.747 64.232 C 387.903 65.036,387.440 67.681,388.917 68.978 C 391.692 71.415,395.526 67.726,393.058 64.993 C 392.211 64.057,390.862 63.746,389.747 64.232 " stroke="none" fill="#fb048b" fill-rule="evenodd"></path><path id="path2" d="" stroke="none" fill="#ec100bc" fill-rule="evenodd"></path><path id="path3" d="" stroke="none" fill="#ec100bc" fill-rule="evenodd"></path><path id="path4" d="" stroke="none" fill="#ec100bc" fill-rule="evenodd"></path></g></svg>