<svg width="14" height="14" viewBox="0 0 14 14" fill="none" xmlns="http://www.w3.org/2000/svg">
<path fill-rule="evenodd" clip-rule="evenodd" d="M10.3334 2.01118C9.3467 1.35189 8.18669 1 7 1V0C8.38447 0 9.7378 0.41054 10.889 1.17971C12.0401 1.94888 12.9373 3.04213 13.4672 4.32122C13.997 5.6003 14.1356 7.00776 13.8655 8.36563C13.5954 9.7235 12.9287 10.9708 11.9497 11.9497C10.9708 12.9287 9.7235 13.5954 8.36563 13.8655C7.00776 14.1356 5.6003 13.997 4.32122 13.4672C3.04213 12.9373 1.94888 12.0401 1.17971 10.889C0.41054 9.7378 0 8.38447 0 7H1C1 8.18669 1.35189 9.3467 2.01118 10.3334C2.67047 11.3201 3.60754 12.0891 4.7039 12.5433C5.80025 12.9974 7.00665 13.1162 8.17054 12.8847C9.3344 12.6532 10.4035 12.0818 11.2426 11.2426C12.0818 10.4035 12.6532 9.3344 12.8847 8.17054C13.1162 7.00665 12.9974 5.80026 12.5433 4.7039C12.0891 3.60754 11.3201 2.67047 10.3334 2.01118Z" fill="black"/>
</svg>
